<svg width="164" height="42" viewBox="0 0 164 42" fill="none" xmlns="http://www.w3.org/2000/svg">
<rect x="1" y="1" width="162" height="40" rx="15" fill="white" stroke="#3B82F6" stroke-width="2"/>
<rect x="20" y="13" width="2" height="16" rx="1" fill="#3B82F6"/>
<rect x="13" y="20" width="16" height="2" rx="1" fill="#3B82F6"/>
<path d="M37.696 26H36.2983L39.4389 17.2727H40.9602L44.1009 26H42.7031L40.2358 18.858H40.1676L37.696 26ZM37.9304 22.5824H42.4645V23.6903H37.9304V22.5824ZM48.1864 26H45.3612V17.2727H48.2759C49.131 17.2727 49.8654 17.4474 50.479 17.7969C51.0927 18.1435 51.5629 18.642 51.8896 19.2926C52.2191 19.9403 52.3839 20.7173 52.3839 21.6236C52.3839 22.5327 52.2177 23.3139 51.8853 23.9673C51.5558 24.6207 51.0785 25.1236 50.4535 25.4759C49.8285 25.8253 49.0728 26 48.1864 26ZM46.6779 24.8494H48.114C48.7788 24.8494 49.3313 24.7244 49.7717 24.4744C50.212 24.2216 50.5415 23.8565 50.7603 23.3793C50.979 22.8991 51.0884 22.3139 51.0884 21.6236C51.0884 20.9389 50.979 20.358 50.7603 19.8807C50.5444 19.4034 50.2219 19.0412 49.793 18.794C49.364 18.5469 48.8313 18.4233 48.195 18.4233H46.6779V24.8494ZM55.3381 17.2727V26H54.0213V17.2727H55.3381ZM64.5043 20.1108H63.1747C63.1236 19.8267 63.0284 19.5767 62.8892 19.3608C62.75 19.1449 62.5795 18.9616 62.3778 18.8111C62.1761 18.6605 61.9503 18.5469 61.7003 18.4702C61.4531 18.3935 61.1903 18.3551 60.9119 18.3551C60.4091 18.3551 59.9588 18.4815 59.5611 18.7344C59.1662 18.9872 58.8537 19.358 58.6236 19.8466C58.3963 20.3352 58.2827 20.9318 58.2827 21.6364C58.2827 22.3466 58.3963 22.946 58.6236 23.4347C58.8537 23.9233 59.1676 24.2926 59.5653 24.5426C59.9631 24.7926 60.4105 24.9176 60.9077 24.9176C61.1832 24.9176 61.4446 24.8807 61.6918 24.8068C61.9418 24.7301 62.1676 24.6179 62.3693 24.4702C62.571 24.3224 62.7415 24.142 62.8807 23.929C63.0227 23.7131 63.1207 23.4659 63.1747 23.1875L64.5043 23.1918C64.4332 23.6207 64.2955 24.0156 64.0909 24.3764C63.8892 24.7344 63.6293 25.044 63.3111 25.3054C62.9957 25.5639 62.6349 25.7642 62.2287 25.9062C61.8224 26.0483 61.3793 26.1193 60.8991 26.1193C60.1435 26.1193 59.4702 25.9403 58.8793 25.5824C58.2884 25.2216 57.8224 24.706 57.4815 24.0355C57.1435 23.3651 56.9744 22.5653 56.9744 21.6364C56.9744 20.7045 57.1449 19.9048 57.4858 19.2372C57.8267 18.5668 58.2926 18.0526 58.8835 17.6946C59.4744 17.3338 60.1463 17.1534 60.8991 17.1534C61.3622 17.1534 61.794 17.2202 62.1946 17.3537C62.598 17.4844 62.9602 17.6776 63.2812 17.9332C63.6023 18.1861 63.8679 18.4957 64.0781 18.8622C64.2884 19.2259 64.4304 19.642 64.5043 20.1108ZM67.3967 17.2727V26H66.0799V17.2727H67.3967ZM76.8952 21.6364C76.8952 22.5682 76.7248 23.3693 76.3839 24.0398C76.043 24.7074 75.5756 25.2216 74.9819 25.5824C74.391 25.9403 73.7191 26.1193 72.9663 26.1193C72.2106 26.1193 71.5359 25.9403 70.9421 25.5824C70.3512 25.2216 69.8853 24.706 69.5444 24.0355C69.2035 23.3651 69.033 22.5653 69.033 21.6364C69.033 20.7045 69.2035 19.9048 69.5444 19.2372C69.8853 18.5668 70.3512 18.0526 70.9421 17.6946C71.5359 17.3338 72.2106 17.1534 72.9663 17.1534C73.7191 17.1534 74.391 17.3338 74.9819 17.6946C75.5756 18.0526 76.043 18.5668 76.3839 19.2372C76.7248 19.9048 76.8952 20.7045 76.8952 21.6364ZM75.5913 21.6364C75.5913 20.9261 75.4762 20.3281 75.2461 19.8423C75.0188 19.3537 74.7063 18.9844 74.3086 18.7344C73.9137 18.4815 73.4663 18.3551 72.9663 18.3551C72.4634 18.3551 72.0146 18.4815 71.6197 18.7344C71.2248 18.9844 70.9123 19.3537 70.6822 19.8423C70.4549 20.3281 70.3413 20.9261 70.3413 21.6364C70.3413 22.3466 70.4549 22.946 70.6822 23.4347C70.9123 23.9205 71.2248 24.2898 71.6197 24.5426C72.0146 24.7926 72.4634 24.9176 72.9663 24.9176C73.4663 24.9176 73.9137 24.7926 74.3086 24.5426C74.7063 24.2898 75.0188 23.9205 75.2461 23.4347C75.4762 22.946 75.5913 22.3466 75.5913 21.6364ZM85.581 17.2727V26H84.3707L79.9347 19.5994H79.8537V26H78.5369V17.2727H79.7557L84.196 23.6818H84.277V17.2727H85.581ZM88.239 26H86.8413L89.9819 17.2727H91.5032L94.6438 26H93.2461L90.7788 18.858H90.7106L88.239 26ZM88.4734 22.5824H93.0075V23.6903H88.4734V22.5824ZM95.9041 26V17.2727H99.0149C99.6911 17.2727 100.252 17.3892 100.698 17.6222C101.147 17.8551 101.482 18.1776 101.704 18.5895C101.925 18.9986 102.036 19.4716 102.036 20.0085C102.036 20.5426 101.924 21.0128 101.7 21.419C101.478 21.8224 101.143 22.1364 100.694 22.3608C100.248 22.5852 99.6868 22.6974 99.0107 22.6974H96.6541V21.5639H98.8913C99.3175 21.5639 99.6641 21.5028 99.9311 21.3807C100.201 21.2585 100.398 21.081 100.523 20.848C100.648 20.6151 100.711 20.3352 100.711 20.0085C100.711 19.679 100.647 19.3935 100.519 19.152C100.394 18.9105 100.197 18.7259 99.9268 18.598C99.6598 18.4673 99.3089 18.402 98.8743 18.402H97.2209V26H95.9041ZM100.212 22.0625L102.369 26H100.869L98.755 22.0625H100.212ZM106.384 18.4062V17.2727H113.138V18.4062H110.415V26H109.103V18.4062H106.384ZM114.337 26H112.939L116.08 17.2727H117.601L120.741 26H119.344L116.876 18.858H116.808L114.337 26ZM114.571 22.5824H119.105V23.6903H114.571V22.5824ZM122.002 26V17.2727H125.113C125.789 17.2727 126.35 17.3892 126.796 17.6222C127.245 17.8551 127.58 18.1776 127.801 18.5895C128.023 18.9986 128.134 19.4716 128.134 20.0085C128.134 20.5426 128.022 21.0128 127.797 21.419C127.576 21.8224 127.24 22.1364 126.792 22.3608C126.346 22.5852 125.784 22.6974 125.108 22.6974H122.752V21.5639H124.989C125.415 21.5639 125.762 21.5028 126.029 21.3807C126.299 21.2585 126.496 21.081 126.621 20.848C126.746 20.6151 126.809 20.3352 126.809 20.0085C126.809 19.679 126.745 19.3935 126.617 19.152C126.492 18.9105 126.294 18.7259 126.025 18.598C125.757 18.4673 125.407 18.402 124.972 18.402H123.319V26H122.002ZM126.31 22.0625L128.466 26H126.966L124.853 22.0625H126.31ZM129.736 26V17.2727H135.208V18.4062H131.053V21.0653H134.922V22.1946H131.053V24.8665H135.259V26H129.736ZM136.967 26V17.2727H142.379V18.4062H138.283V21.0653H141.991V22.1946H138.283V26H136.967ZM143.645 26H142.248L145.388 17.2727H146.909L150.05 26H148.652L146.185 18.858H146.117L143.645 26ZM143.88 22.5824H148.414V23.6903H143.88V22.5824Z" fill="#3B82F6"/>
</svg>
